<?xml version="1.0" encoding="utf-8"?>
<!-- Generator: Adobe Illustrator 18.0.0, SVG Export Plug-In . SVG Version: 6.00 Build 0)  -->
<!DOCTYPE svg PUBLIC "-//W3C//DTD SVG 1.1//EN" "http://www.w3.org/Graphics/SVG/1.1/DTD/svg11.dtd">
<svg version="1.1" id="Layer_1" xmlns="http://www.w3.org/2000/svg" xmlns:xlink="http://www.w3.org/1999/xlink" x="0px" y="0px"
	 viewBox="0 0 11.9 7.8" enable-background="new 0 0 11.9 7.8" xml:space="preserve">
<path fill="#8E9398" d="M10.7,0c-0.3,0-0.5,0.2-0.6,0.4h0l0,0c0,0,0,0,0,0l-3.5,5c0,0,0,0,0,0C6.5,5.5,6.4,5.6,6.3,5.7c0,0,0,0,0,0
	v0C6.2,5.7,6.1,5.8,6,5.8c-0.1,0-0.3,0-0.4-0.1c0,0,0,0,0,0c-0.1,0-0.1-0.1-0.2-0.2c0,0,0,0,0,0l-3.5-5c0,0,0,0,0,0l0,0l0,0
	C1.7,0.2,1.4,0.1,1.2,0C0.6-0.1,0.1,0.3,0,0.8C0,1.2,0.1,1.5,0.3,1.7l0,0l3.4,4.9c0.4,0.6,1,1,1.7,1.1c0.2,0,0.5,0,0.7,0
	c0.1,0,0.3,0,0.4,0c0.7-0.1,1.3-0.5,1.7-1.1l3.5-5c0.2-0.2,0.2-0.5,0.2-0.8C11.8,0.3,11.3-0.1,10.7,0z"/>
</svg>
